<?xml version="1.0" encoding="utf-8"?><svg xmlns="http://www.w3.org/2000/svg" xmlns:xlink="http://www.w3.org/1999/xlink"><symbol viewBox="0 0 60 60" id="Codeopen_Color" xmlns="http://www.w3.org/2000/svg"><title>Codeopen_Color</title><g fill-rule="evenodd"><path d="M0 30C0 13.431 13.431 0 30 0c16.569 0 30 13.431 30 30 0 16.569-13.431 30-30 30C13.431 60 0 46.569 0 30z"/><path d="M45.988 25.604l-.01-.058a1.305 1.305 0 0 0-.024-.112c-.005-.022-.014-.043-.02-.065a1.635 1.635 0 0 0-.035-.096.663.663 0 0 0-.03-.065.688.688 0 0 0-.045-.088c-.012-.022-.026-.042-.038-.062a.934.934 0 0 0-.102-.139 1.187 1.187 0 0 0-.067-.073c-.017-.017-.034-.035-.052-.051a2.208 2.208 0 0 0-.076-.064l-.06-.045-.022-.017-14.168-9.445a1.333 1.333 0 0 0-1.478 0l-14.167 9.445-.022.017c-.022.014-.041.03-.06.045a.951.951 0 0 0-.076.064l-.053.051a.929.929 0 0 0-.066.073.856.856 0 0 0-.102.139 1.335 1.335 0 0 0-.084.15l-.03.065a1.154 1.154 0 0 0-.034.096c-.007.022-.015.043-.02.065-.01.036-.017.074-.024.112-.004.02-.008.038-.01.058a1.27 1.27 0 0 0-.013.173v9.446c0 .058.005.116.013.174a1.42 1.42 0 0 0 .034.169c.005.022.013.043.02.064.01.032.021.065.035.098.008.022.02.043.029.064l.045.09c.013.02.025.04.04.06a1.178 1.178 0 0 0 .22.263 1.197 1.197 0 0 0 .136.11l.022.016 14.167 9.445a1.331 1.331 0 0 0 1.478 0l14.168-9.445.022-.017.06-.045c.026-.02.05-.042.076-.064l.052-.052a1.17 1.17 0 0 0 .169-.21l.038-.062a.968.968 0 0 0 .045-.089c.01-.021.022-.042.03-.064.013-.033.023-.066.034-.098.007-.02.016-.042.021-.064a1.42 1.42 0 0 0 .024-.112l.01-.057c.008-.058.012-.116.012-.174v-9.446c0-.059-.004-.117-.012-.173zm-14.156-6.782l10.437 6.957-4.661 3.119-5.776-3.864v-6.212zm-2.664 0v6.212l-5.775 3.864-4.662-3.119 10.437-6.957zM17.664 28.27l3.334 2.229-3.334 2.23v-4.46zm11.504 13.907L18.731 35.22l4.662-3.118 5.775 3.863v6.212zM30.5 33.65l-4.711-3.15 4.711-3.151 4.712 3.151-4.712 3.151zm1.332 8.527v-6.212l5.776-3.863 4.661 3.118-10.437 6.957zm11.504-9.449L40.003 30.5l3.333-2.23v4.46z"/></g></symbol><symbol viewBox="0 0 60 60" id="Coub_Color" xmlns="http://www.w3.org/2000/svg"><title>Coub_Color</title><defs><path d="M29 58c16.016 0 29-12.984 29-29S45.016 0 29 0 0 12.984 0 29s12.984 29 29 29z" id="ba"/><path d="M14.252 55.539C5.699 50.254 0 40.792 0 30 0 13.431 13.431 0 30 0c16.569 0 30 13.431 30 30 0 16.569-13.431 30-30 30-.795 0-1.583-.03-2.363-.092L30.59 51.8c.488-1.341 2.118-3.138 3.555-4.725.823-.905 1.532-1.689 1.803-2.15 1.307-2.224 5.292-8.908 5.332-8.976a117.24 117.24 0 0 0 2.943-4.493l4.426-7.19c.809-1.314.87-2.963.136-3.675a1.269 1.269 0 0 0-.449-.28c-.811-.295-1.89.183-2.683 1.191l-4.449 6.203c-.514.654-1.09 1.19-1.647 1.709-.463.432-.941.879-1.37 1.377l-.454.532a.313.313 0 0 1-.216.108.576.576 0 0 1-.236-.031c-.159-.058-.414-.239-.345-.804.015-.07.794-3.342-1.271-4.214l-.09-.034c-1.117-.407-2.006.291-2.993 1.465-.148.176-.452.193-.605.137a.583.583 0 0 1-.366-.705c.352-1.575-.297-3.048-1.544-3.501l-.095-.032c-1.085-.348-2.394.098-3.18 1.088a.314.314 0 0 1-.102.084c-.156.149-.424.356-.715.25-.312-.114-.386-.493-.414-.77l-.035-.342c-.034-.339-.077-.73-.127-1.15-.156-1.374-.35-3.084-.32-4.22l.479-8.072c.033-1.18-.51-2.184-1.349-2.49a1.57 1.57 0 0 0-.741-.08c-1.188.152-2.207 1.498-2.323 3.064l-.881 8.162c-.061.826-.042 1.98-.023 3.096.014.828.028 1.61.008 2.242l-.077 2.603c-.027.876-.307 1.505-.833 1.868-.29.204-1.266.905-2.322 1.89-.115.108-.233.21-.348.312-.779.69-1.45 1.287-1.515 3.267-.034.93.009 1.875.143 3.263.14 1.458.57 2.373 1.027 3.34.651 1.38 1.93 3.43 1.069 5.794l-3.14 8.628z" id="bc"/></defs><g fill-rule="evenodd"><g transform="translate(1 2)"><mask id="bb"><use xlink:href="#ba"/></mask><path mask="url(#bb)" d="M-1.003 58h60.006V-2H-1.003z"/></g><mask id="bd"><use xlink:href="#bc"/></mask><path mask="url(#bd)" d="M-.003 60h60.006V0H-.003z"/></g></symbol></svg>