<?xml version="1.0" encoding="utf-8"?>
<!-- Generator: Adobe Illustrator 21.0.0, SVG Export Plug-In . SVG Version: 6.00 Build 0)  -->
<svg version="1.1" id="Layer_1" xmlns="http://www.w3.org/2000/svg" xmlns:xlink="http://www.w3.org/1999/xlink" x="0px" y="0px"
	 viewBox="0 0 463 459" enable-background="new 0 0 463 459" xml:space="preserve">
<pattern  width="312.7" height="314.5" patternUnits="userSpaceOnUse" id="eng_16_white" viewBox="0 -314.5 312.7 314.5" overflow="visible">
	<g>
		<rect y="-314.5" fill="none" width="312.7" height="314.5"/>
		<g>
			<path fill="#FFFFFF" d="M178.5-289.8l-1.3-1.5c-0.2-0.2-0.6-0.3-0.8,0c-0.2,0.2-0.3,0.6,0,0.8l1.3,1.5c0.1-0.1,0.3-0.3,0.4-0.4
				C178.2-289.6,178.3-289.7,178.5-289.8z"/>
			<path fill="#FFFFFF" d="M192.9-271.9l14,15.8c0.1,0.1,0.1,0.1,0.2,0.2c0.5,0.5,1.2,1.3,1.1,2c0,0.4-0.2,0.8-0.7,1.1
				c-0.4,0.3-0.7,0.4-1.1,0.4c-0.8-0.1-1.6-1-1.9-1.3c-0.2-0.2-0.4-0.3-0.7-0.1c-0.2,0.2-0.3,0.4-0.1,0.7c0,0.1,1.1,1.6,2.5,1.7
				c0.7,0.1,1.3-0.1,1.8-0.6c0.6-0.6,1-1.2,1-1.8c0.1-1.1-0.8-2.1-1.4-2.7l-14.2-16.1c0.3,0.8,0.7,1.5,1.3,2.2
				C194.3-271.1,193.6-271.5,192.9-271.9z"/>
			<path fill="#FFFFFF" d="M178.5-289.8c-0.1,0.1-0.3,0.2-0.4,0.4c-0.1,0.1-0.3,0.3-0.4,0.4c-10.1,9.3-11,25.1-1.8,35.5
				c-2.3-2.6-2.1-6.6,0.5-9c2.6-2.3,6.6-2.1,9,0.5c-2.3-2.6-2.1-6.6,0.6-9c2-1.8,4.8-2,7-0.9c0.7,0.4,1.4,0.8,1.9,1.5
				c-0.6-0.7-1-1.4-1.3-2.2c-0.8-2.3-0.2-5,1.8-6.8c2.6-2.3,6.6-2.1,9,0.5c-2.3-2.6-2.1-6.6,0.6-9c2.6-2.3,6.6-2.1,9,0.6l0,0
				C204.7-297.6,189-298.7,178.5-289.8z"/>
		</g>
		<g>
			<path fill="#FFFFFF" d="M33.7-124l4.8-9.8c0.1-0.3,0.1-0.6-0.1-0.8c-0.2-0.2-0.5-0.3-0.8-0.1l-3.6,1.7l9.1-18.6
				c0.2-0.3,0-0.8-0.3-0.9c-0.3-0.2-0.8,0-0.9,0.3l-10,20.4c-0.1,0.3-0.1,0.6,0.1,0.8c0.2,0.2,0.5,0.3,0.8,0.1l3.6-1.7l-4.4,9.2
				C32.4-123.8,33-124,33.7-124z"/>
			<path fill="#FFFFFF" d="M44.1-120.6c0.6-0.1,1.3-0.3,1.9-0.7c-1.3,0-2.6-0.2-3.8-0.8c-1.2-0.6-2.3-1.5-3-2.5
				c0.1,0.7,0.3,1.3,0.6,1.9l-0.6,1.2l4.3,2.1L44.1-120.6z"/>
			<path fill="#FFFFFF" d="M42.1-122.1c-1.2-0.6-2.3-1.5-3-2.5c-1.7-2.4-2.1-5.5-0.7-8.3l3.9-8c2-4,6.8-5.7,10.9-3.7
				c4,2,5.7,6.8,3.7,10.9l-3.9,8c-1.4,2.8-4.1,4.4-7,4.5C44.7-121.3,43.4-121.5,42.1-122.1z M42.8-123.5c1.1,0.5,4.5,2.2,6-0.8
				c1.5-3.1,0-5.1-2.4-6.4c-2.5-1.2-5-1.1-6.5,2C38.3-125.7,41.7-124,42.8-123.5z"/>
			<path fill="#FFFFFF" d="M48.8-124.3c1.5-3.1,0-5.1-2.4-6.4c-2.5-1.2-5-1.1-6.5,2c-1.5,3.1,1.9,4.7,3,5.2
				C43.9-123,47.3-121.3,48.8-124.3z"/>
			<path fill="#FFFFFF" d="M49.2-113.1L39-92.3c-0.8,1.6-2.7,2.3-4.3,1.5L21.9-97c-1.6-0.8-2.3-2.7-1.5-4.3l10.2-20.8
				c0.3-0.6,0.7-1,1.2-1.3c0.5-0.3,1.2-0.5,1.8-0.5c0.5,0,0.9,0.1,1.3,0.3l4.2,2.1l4.3,2.1l4.2,2.1C49.3-116.6,50-114.7,49.2-113.1z
				 M32-99.3c0.2-0.5,0-1-0.4-1.2s-1,0-1.2,0.4c-0.2,0.5,0,1,0.4,1.2S31.7-98.8,32-99.3z M33.9-103.3c0.2-0.5,0-1-0.4-1.2
				s-1,0-1.2,0.4c-0.2,0.5,0,1,0.4,1.2S33.7-102.8,33.9-103.3z M35.9-107.4c0.2-0.5,0-1-0.4-1.2s-1,0-1.2,0.4c-0.2,0.5,0,1,0.4,1.2
				S35.7-106.9,35.9-107.4z M37.9-111.4c0.2-0.5,0-1-0.4-1.2s-1,0-1.2,0.4c-0.2,0.5,0,1,0.4,1.2S37.7-110.9,37.9-111.4z M39.9-115.4
				c0.2-0.5,0-1-0.4-1.2c-0.5-0.2-1,0-1.2,0.4c-0.2,0.5,0,1,0.4,1.2S39.7-115,39.9-115.4z"/>
			
				<ellipse transform="matrix(0.8979 -0.4402 0.4402 0.8979 54.9893 5.3598)" fill="#FFFFFF" cx="39" cy="-115.9" rx="0.9" ry="0.9"/>
			
				<ellipse transform="matrix(0.8979 -0.4402 0.4402 0.8979 53.006 4.8997)" fill="#FFFFFF" cx="37.1" cy="-111.8" rx="0.9" ry="0.9"/>
			
				<ellipse transform="matrix(0.8979 -0.4402 0.4402 0.8979 51.0222 4.4395)" fill="#FFFFFF" cx="35.1" cy="-107.8" rx="0.9" ry="0.9"/>
			
				<ellipse transform="matrix(0.8979 -0.4402 0.4402 0.8979 49.0383 3.9794)" fill="#FFFFFF" cx="33.1" cy="-103.7" rx="0.9" ry="0.9"/>
			
				<ellipse transform="matrix(0.8979 -0.4402 0.4402 0.8979 47.0548 3.5193)" fill="#FFFFFF" cx="31.1" cy="-99.7" rx="0.9" ry="0.9"/>
		</g>
		<g>
			
				<ellipse transform="matrix(0.3814 -0.9244 0.9244 0.3814 137.3059 147.3006)" fill="#FFFFFF" cx="178.7" cy="-28.9" rx="5" ry="5"/>
			
				<ellipse transform="matrix(0.3814 -0.9244 0.9244 0.3814 165.1426 165.9288)" fill="#FFFFFF" cx="206.5" cy="-40.4" rx="5" ry="5"/>
			<path fill="#FFFFFF" d="M221.1-46.4c0.2,0.8-2.1,1.7-5.2,2.8c-0.5,0.2-3.2,1.3-4.1,1.7c0.1-0.3-2.4-6.2-8-3.3
				c-5.3,3-1.8,8-1.7,8.1l-17.8,7.2c-0.7-1.5-1.5-5.3-6.5-4.5c-4.5,0.7-4.7,4.6-4.7,6.5l-2.1-0.6l-0.4-2c0,0-0.4-0.5-0.5-1.5
				c-0.1-1.1,0.6-0.9,0.6-0.9s0.1-0.9,0.4-2.4l0-0.1l0,0c0.8-3.4,2.8-9.6,8.3-12.8c7.8-4.6,13.4-5,14.2-4.9c0.9,0.1,5.5,3.2,5.5,3.2
				s4.5-1.9,8.3-2.2c2.3-0.2,4.5,0.2,5.8,0.5l0.1,0l0,0.1c0.7,0.2,1.1,0.3,1.1,0.3s0.9-0.8,1.7-0.2c0.8,0.5,0.6,1.4,0.6,1.4
				s0.7,0.1,1.1,0.4c0.5,0.3,1.3,1.3,1.8,2.3C220.3-47.1,220.9-47.3,221.1-46.4z M186.2-42.7c0.5,0.1,10.2-3.9,10.4-4.3
				c0.2-0.4-0.7-3.2-4.2-3.3c-3.5-0.1-7.8,2-8.1,2.6C184.1-47.2,185.6-42.8,186.2-42.7z M176.7-38.8c0.4,0.2,7.8-2.9,8-3.3
				c0.2-0.4-1.7-4.4-2.2-4.7c-0.5-0.3-4,0.9-5.7,3.1C175.1-41.5,176.4-39,176.7-38.8z"/>
		</g>
		<g>
			<polygon fill="#FFFFFF" points="204.8,-138.8 214.3,-125.8 215.8,-123.8 225.3,-130.7 212.8,-147.7 203.3,-140.8 			"/>
			<path fill="#FFFFFF" d="M173.8-116.1l30.5-22.3l9.5,13l-30.5,22.3L173.8-116.1z M180.3-115.7l4.7,6.4l9.8-7.2l-4.7-6.4
				L180.3-115.7z"/>
			<path fill="#FFFFFF" d="M166.7-113.7l0.3,0.4l5.3-3.9l1,1.4l9.5,13l1,1.4l-5.3,3.9l0.3,0.4c-2.7,2-7.6-0.2-10.9-4.8
				C164.6-106.4,164-111.7,166.7-113.7z M172.4-109.9l4.7,6.4l2-1.5l-4.7-6.4L172.4-109.9z"/>
		</g>
		<g>
			<path fill="#FFFFFF" d="M139.5-144.4l3.1,10.7l-52.9,15.3l-3.1-10.7c-0.4-1.4,0.4-2.9,1.8-3.3l47.8-13.8
				C137.6-146.6,139.1-145.8,139.5-144.4z M98.2-128.7l-0.6-2.2c-0.2-0.6-0.9-1-1.5-0.8l-4.8,1.4c-0.6,0.2-1,0.9-0.8,1.5l0.6,2.2
				c0.2,0.6,0.9,1,1.5,0.8l4.8-1.4C98-127.4,98.3-128,98.2-128.7z M108.8-131.5l-0.6-2.2c-0.2-0.6-0.9-1-1.5-0.8l-4.8,1.4
				c-0.6,0.2-1,0.9-0.8,1.5l0.6,2.2c0.2,0.6,0.9,1,1.5,0.8l4.8-1.4C108.6-130.2,109-130.9,108.8-131.5z M118.6-134.2l-0.6-2.2
				c-0.2-0.6-0.9-1-1.5-0.8l-4.8,1.4c-0.6,0.2-1,0.9-0.8,1.5l0.6,2.2c0.2,0.6,0.9,1,1.5,0.8l4.8-1.4
				C118.4-132.9,118.8-133.5,118.6-134.2z M128.2-137.7l-0.6-2.2c-0.2-0.6-0.9-1-1.5-0.8l-4.8,1.4c-0.6,0.2-1,0.9-0.8,1.5l0.6,2.2
				c0.2,0.6,0.9,1,1.5,0.8l4.8-1.4C128-136.4,128.3-137.1,128.2-137.7z M136.6-142.3c-1.9-1.3-4.7,0.1-4.7,0.1
				c-0.6,0.2-1,0.9-0.8,1.5l0.6,2.2c0.2,0.6,0.9,1,1.5,0.8l5.1-1.5C138.9-139.4,137.7-141.5,136.6-142.3z"/>
			
				<ellipse transform="matrix(0.2771 -0.9609 0.9609 0.2771 171.6247 28.4241)" fill="#FFFFFF" cx="104.7" cy="-99.8" rx="3.6" ry="3.6"/>
			<path fill="#FFFFFF" d="M145-131.9l4.4,16.4c0.3,1.4-0.5,2.9-1.9,3.4l-7.4,2l-0.3,1c0,0-3.4-4.6-5.8-3.9
				c-2.4,0.7-3.1,5.4-3.1,5.4l-0.4,0.1l-21.5,6.7c0,0-3.3-4.1-5.6-3.4c-2.4,0.7-3.8,3.2-3.3,4.8l-3.4,0.9l-0.2-0.9c0,0,0.2,0,0.2,0
				L94-98.6c-0.2,0.2-0.3,0.1-1.1,0.1l-2.3-8.6c0.5-0.3,0.6-1.2,0.6-1.2l2.7-0.7l-1.6-5.8c-1.4-0.2-1.7-1.4-1.4-1.5l-0.8-3.1
				l52.5-14.2l0.1,0.2C142.6-133.4,144.4-132.6,145-131.9z M103.4-112.9l-0.6-2.2c-0.2-0.6-0.9-1-1.5-0.8l-4.8,1.4
				c-0.6,0.2-1,0.9-0.8,1.5l0.6,2.2c0.2,0.6,0.9,1,1.5,0.8l4.8-1.4C103.2-111.6,103.6-112.3,103.4-112.9z M113.2-115.5l-0.6-2.2
				c-0.2-0.6-0.9-1-1.5-0.8l-4.8,1.4c-0.6,0.2-1,0.9-0.8,1.5l0.6,2.2c0.2,0.6,0.9,1,1.5,0.8l4.8-1.4
				C113-114.2,113.3-114.9,113.2-115.5z M122.7-119.1l-0.6-2.2c-0.2-0.6-0.9-1-1.5-0.8l-4.8,1.4c-0.6,0.2-1,0.9-0.8,1.5l0.6,2.2
				c0.2,0.6,0.9,1,1.5,0.8l4.8-1.4C122.5-117.8,122.9-118.4,122.7-119.1z M133.4-121.9l-0.6-2.2c-0.2-0.6-0.9-1-1.5-0.8l-4.8,1.4
				c-0.6,0.2-1,0.9-0.8,1.5l0.6,2.2c0.2,0.6,0.9,1,1.5,0.8l4.8-1.4C133.2-120.6,133.5-121.3,133.4-121.9z M142.5-126.8
				c0.1-0.7-0.6-1.1-1.2-0.8l-5.1,1.4c-0.6,0.2,0.1,1.2,0.1,1.2l1.8,6.6l-0.5,1.7l1,0.2l-0.6,1.4l1,0.2l-0.6,1.4
				c0.3,0.6,1.6,0.6,1.6,0.6l5.1-1.4c0,0,1-0.7,0.4-1.3L142.5-126.8z"/>
			
				<ellipse transform="matrix(0.2771 -0.9609 0.9609 0.2771 202.2427 51.4608)" fill="#FFFFFF" cx="135.3" cy="-108.7" rx="3.6" ry="3.6"/>
		</g>
		<g>
			<path fill="#FFFFFF" d="M31.2-49.4l4,5.4l-5.4,4l-4-5.4L31.2-49.4z M33-46.6c-1-1.4-3-1.7-4.4-0.6c-1.4,1-1.7,3-0.6,4.4
				c1,1.4,3,1.7,4.4,0.6C33.8-43.2,34.1-45.2,33-46.6z"/>
			<g>
				<path fill="#FFFFFF" d="M30.6-44.6c-0.1,0-0.1,0-0.2,0c0,0,0-0.1,0-0.1l-0.5-0.6c-0.4,0.3-0.4,0.8-0.2,1.2
					c0.3,0.4,0.9,0.5,1.3,0.2c0.4-0.3,0.5-0.8,0.2-1.2L30.6-44.6C30.6-44.6,30.6-44.6,30.6-44.6z"/>
				<path fill="#FFFFFF" d="M30.5-44.8l0.6-0.5c-0.3-0.3-0.8-0.4-1.2-0.2L30.5-44.8C30.5-44.8,30.5-44.8,30.5-44.8z"/>
				<path fill="#FFFFFF" d="M32.9-46.5c1,1.3,0.7,3.2-0.6,4.2c-1.3,1-3.2,0.7-4.2-0.6c-1-1.3-0.7-3.2,0.6-4.2
					C30-48.1,31.9-47.8,32.9-46.5z M32.4-46l-0.1-0.1l-1.1,0.8c-0.3-0.4-0.9-0.4-1.3-0.2L28.8-47L28.7-47l1.2,1.6
					c-0.4,0.3-0.5,0.9-0.2,1.3c0.3,0.4,0.9,0.5,1.3,0.2c0.4-0.3,0.5-0.9,0.2-1.3L32.4-46z"/>
			</g>
			<path fill="#FFFFFF" d="M22.6-45.1L22.5-45l-0.1-0.1c0,0,0-0.1,0-0.1c0,0-0.1,0-0.1,0c0,0,0,0.1,0,0.1c0,0,0,0,0.1,0l0.1,0.1
				l-0.1,0.1l0.1,0.1l0.1-0.1l5.3,7.2l0.1-0.1L22.5-45L22.6-45.1L22.6-45.1z"/>
			<path fill="#FFFFFF" d="M32.6-52.6l-0.1,0.1l-0.1-0.1c0,0,0-0.1,0-0.1c0,0-0.1,0-0.1,0c0,0,0,0.1,0,0.1c0,0,0,0,0.1,0l0.1,0.1
				l-0.1,0.1l0.1,0.1l0.1-0.1l5.3,7.2l0.1-0.1l-5.3-7.2L32.6-52.6L32.6-52.6z"/>
			<path fill="#FFFFFF" d="M38-45.3l0.3,0.4l-10.3,7.7l-0.3-0.4l0.2-0.1L23-44.1l0.6-0.4l-1.9-2.5l0,0l-0.4-0.6l-0.1,0.1l-0.1-0.1
				l0.1-0.1l-0.1-0.1c0,0-0.1,0-0.1,0c0,0,0-0.1,0-0.1c0,0,0.1,0,0.1,0c0,0,0,0.1,0,0.1l0.1,0.1l0.1-0.1l0.1,0.1l-0.1,0.1l0.4,0.6
				l8.8-6.5l-0.4-0.6L30-54.2L30-54.3l0.1-0.1L30-54.4c0,0-0.1,0-0.1,0c0,0,0-0.1,0-0.1c0,0,0.1,0,0.1,0c0,0,0,0.1,0,0.1l0.1,0.1
				l0.1-0.1l0.1,0.1l-0.1,0.1l0.4,0.6l0,0l1.9,2.5l0.6-0.5L38-45.3L38-45.3z M30.3-50.3l0.6-0.4l-1-1.4l-0.6,0.4L30.3-50.3z
				 M29.5-49.7l0.6-0.4l-1-1.4L28.5-51L29.5-49.7z M28.6-49.1l0.6-0.4l-1-1.4l-0.6,0.4L28.6-49.1z M27.8-48.5l0.6-0.4l-1-1.4
				l-0.6,0.4L27.8-48.5z M27-47.9l0.6-0.4l-1-1.4L26-49.2L27-47.9z M26.2-47.3l0.6-0.4l-1-1.4l-0.6,0.4L26.2-47.3z M25.4-46.7
				l0.6-0.4l-1-1.4L24.4-48L25.4-46.7z M24.6-46.1l0.6-0.4l-1-1.4l-0.6,0.4L24.6-46.1z M31.2-49.8l-5.9,4.4l4.4,5.9l5.9-4.4
				L31.2-49.8z"/>
			<polygon fill="#FFFFFF" points="28.4,-36.5 28.9,-35.9 29.9,-36.6 45.1,-16.2 46.8,-17.5 31.6,-37.9 32.4,-38.5 47.5,-18.1 
				48.9,-19.1 33.8,-39.5 34.5,-40 49.7,-19.7 51,-20.7 35.9,-41.1 36.6,-41.6 51.8,-21.2 53.5,-22.5 38.4,-42.9 39.2,-43.6 
				38.8,-44.2 			"/>
			<path fill="#FFFFFF" d="M30.4-53.8C30.4-53.8,30.4-53.8,30.4-53.8c-0.4-0.1-0.9-0.3-1.5-0.4l0,0c-0.5-0.2-1.1-0.3-1.6-0.5
				c-1.4-0.4-2.5-0.7-2.5-0.7l0.2-0.2L24.8-56l-1.2-1.7l0,0c0,0-1.3-0.3-2.6-1.3c-0.9-0.7-2-1.6-2.6-2.1l-0.1-0.1
				c0-0.1,0.1-0.1,0.1-0.1c0,0-0.1,0-0.1,0l-0.5-0.6l0.2-0.2l-0.1-0.1l-0.2,0.2l-0.1-0.1c0-0.1,0-0.1,0-0.2c-0.1-0.1-0.2-0.1-0.2,0
				c-0.1,0.1-0.1,0.2,0,0.2c0,0,0.1,0.1,0.1,0.1l0.1,0.1l-0.2,0.2l0.1,0.1l0.2-0.2l0.5,0.6c0,0.1-0.1,0.1-0.1,0.1c0,0,0.1,0,0.1,0
				l0.1,0.1c0.3,0.7,0.9,2,1.3,3.1c0.6,1.5,0.5,2.8,0.5,2.8l0,0l1.2,1.7l0.3,0.3l0.2-0.2c0,0,0,1.1,0,2.6c0,1,0,2.3,0,3
				c0,0,0,0.1,0,0.1c0,0,0,0.1,0,0.1L30.4-53.8z"/>
		</g>
		<g>
			<path fill="#FFFFFF" d="M66.8-197.7l-3.8,7.4l2.4,7.5c0,0-5.7,5.5-17.6,9.3c-11.9,3.8-19.8,2.7-19.8,2.7l-2.4-7.5l-7.4-3.8
				c-5.7-2.9-7.6-10.5-4.3-16.9c3.3-6.4,10.5-9.3,16.2-6.4l3.6,1.9c-0.7-3.5-0.3-6.5,1.2-7.6l-0.2-0.6l0,0l-0.4-1.2l-1.7,0.6
				c-0.1,0.2-0.1,0.5-0.2,0.6c-0.2,0.6,0,1.4,0,1.4L32-210l-0.8-2.5l-0.2-0.7l1.2-0.4l1.8-0.6l-0.6-1.7l-0.1-0.2
				c-0.4-0.1-0.8-0.4-0.9-0.9c-0.2-0.7,0.2-1.4,0.8-1.6c0.7-0.2,1.4,0.2,1.6,0.8c0.1,0.4,0,0.9-0.2,1.2l0.1,0.2l0.6,1.8l1.7-0.6
				l1.2-0.4l0.2,0.7l0.8,2.5l-0.4,0.1c0,0-0.3-0.8-0.8-1.2c-0.2-0.1-0.4-0.3-0.6-0.4l-1.8,0.6l0.6,1.7c0,0,0,0,0,0
				c1.8,0,3.9,2.2,5.4,5.3l1.8-3.5c2.9-5.7,10.5-7.6,16.9-4.3C66.8-210.6,69.7-203.3,66.8-197.7z M35.3-201.8
				c0.5,1.5,1.1,2.8,1.8,3.8c0.2,0.2,0.3,0.5,0.5,0.7c0.7,0.9,1.5,1.6,2.2,1.7c0.3,0.1,0.6,0.1,0.9,0c0.3-0.1,0.5-0.3,0.7-0.5
				c0.5-0.6,0.7-1.5,0.8-2.7c0-0.3,0-0.6,0-0.9c-0.1-1.2-0.3-2.7-0.8-4.1c-1.3-4-3.7-6.8-5.4-6.2C34.3-209.5,34-205.8,35.3-201.8z
				 M51.1-179.9c0.6-0.2,1-0.9,0.8-1.5c-0.2-0.6-0.9-1-1.5-0.8c-0.6,0.2-1,0.9-0.8,1.5C49.8-180,50.5-179.6,51.1-179.9z M56-181.4
				c0.6-0.2,1-0.9,0.8-1.5c-0.2-0.6-0.9-1-1.5-0.8c-0.6,0.2-1,0.9-0.8,1.5C54.7-181.6,55.4-181.2,56-181.4z M60.2-190.4
				c0.6,0.2,1.4,0,1.4,0l0.1,0.2l0.6-1.2l-0.2,0.1c0,0-0.3-0.8-0.8-1.2c-0.2-0.1-0.4-0.3-0.5-0.4l-1.8,0.6l0.6,1.7
				C59.8-190.5,60-190.5,60.2-190.4z M46.2-178.3c0.6-0.2,1-0.9,0.8-1.5c-0.2-0.6-0.9-1-1.5-0.8c-0.6,0.2-1,0.9-0.8,1.5
				C44.9-178.4,45.6-178.1,46.2-178.3z M36.4-175.1c0.6-0.2,1-0.9,0.8-1.5c-0.2-0.6-0.9-1-1.5-0.8c-0.6,0.2-1,0.9-0.8,1.5
				C35.1-175.2,35.8-174.9,36.4-175.1z M41.3-176.7c0.6-0.2,1-0.9,0.8-1.5c-0.2-0.6-0.9-1-1.5-0.8c-0.6,0.2-1,0.9-0.8,1.5
				C40-176.8,40.7-176.5,41.3-176.7z M19.3-182.6l7.7,3.9c0,0,0,0,0,0l-0.1-0.4c0,0,0.8-0.3,1.2-0.8c0.1-0.2,0.3-0.4,0.4-0.5
				l-0.6-1.8l-1.7,0.6c-0.1,0.2-0.1,0.5-0.2,0.6c-0.2,0.6,0,1.4,0,1.4l-0.4,0.1l-0.8-2.5l-0.2-0.7l1.2-0.4l1.8-0.6l-0.6-1.7
				l-0.1-0.2c-0.4-0.1-0.8-0.4-0.9-0.9c-0.2-0.7,0.2-1.4,0.8-1.6c0.7-0.2,1.4,0.2,1.6,0.8c0.1,0.4,0,0.9-0.2,1.2l0.1,0.2l0.6,1.8
				l1.7-0.6l1.2-0.4l0.2,0.7l0.8,2.5l-0.4,0.1c0,0-0.3-0.8-0.8-1.2c-0.2-0.1-0.4-0.3-0.5-0.4l-1.8,0.6l0.6,1.7
				c0.2,0.1,0.5,0.1,0.6,0.2c0.6,0.2,1.4,0,1.4,0l0.1,0.4c3-1,6.7-2.2,10.6-3.4l-0.6-1.8l-2.3,0.8l-0.2-0.7c0,0,1.3-0.6,1.9-1.4
				c0.2-0.3,0.4-0.6,0.7-0.9l-0.9-2.9l-2.9,0.9c-0.1,0.4-0.2,0.7-0.3,1.1c-0.3,1,0,2.4,0,2.4l-0.7,0.2l-1.3-4.1l-1.3-4.1l0.7-0.2
				c0,0,0.6,1.3,1.4,1.9c0.3,0.2,0.6,0.4,0.9,0.7l2.9-0.9l-0.4-1.3c-0.9-0.2-1.9-0.9-2.9-2c-0.2-0.3-0.4-0.5-0.6-0.8
				c-0.9-1.2-1.6-2.7-2.2-4.5c-0.1-0.2-0.1-0.4-0.2-0.5l-3.9-2c-5.2-2.7-11.9,0-14.9,5.9C12.3-192.2,14.1-185.3,19.3-182.6z
				 M32.3-175c-0.2-0.6-0.9-1-1.5-0.8c-0.6,0.2-1,0.9-0.8,1.5c0.2,0.6,0.9,1,1.5,0.8C32.2-173.7,32.5-174.4,32.3-175z M60.2-185.3
				c-0.6,0.2-1,0.9-0.8,1.5c0.2,0.6,0.9,1,1.5,0.8c0.6-0.2,1-0.9,0.8-1.5C61.5-185.2,60.8-185.5,60.2-185.3z M65.5-197.6
				c2.7-5.2,0-11.9-5.9-14.9c-5.9-3-12.9-1.3-15.5,3.9l-1.9,3.7c0.1,0.2,0.2,0.5,0.2,0.7c0.6,1.7,0.8,3.4,0.9,4.9c0,0.4,0,0.7,0,1
				c-0.1,1.4-0.5,2.6-1.1,3.3l0.4,1.4l2.9-0.9c0.1-0.4,0.2-0.7,0.3-1.1c0.3-1,0-2.4,0-2.4l0.7-0.2l1.3,4.1l1.3,4.1l-0.7,0.2
				c0,0-0.6-1.3-1.4-1.9c-0.3-0.2-0.6-0.4-0.9-0.7l-2.9,0.9l0.9,2.9c0.4,0.1,0.7,0.2,1.1,0.3c1,0.3,2.4,0,2.4,0l0.2,0.7l-2.3,0.7
				l0.6,1.8c3.9-1.3,7.7-2.5,10.7-3.4l-0.1-0.4c0,0,0.8-0.3,1.2-0.8c0.1-0.2,0.3-0.4,0.4-0.5l-0.6-1.8l-1.7,0.6
				c-0.1,0.2-0.1,0.4-0.2,0.6c-0.2,0.6,0,1.4,0,1.4l-0.4,0.1l-0.8-2.5l-0.2-0.7l1.2-0.4l1.8-0.6l-0.6-1.7l-0.1-0.2
				c-0.4-0.1-0.8-0.4-0.9-0.9c-0.2-0.7,0.2-1.4,0.8-1.6c0.7-0.2,1.4,0.2,1.6,0.8c0.1,0.4,0,0.9-0.2,1.2l0.1,0.2l0.6,1.8l1.7-0.6
				l1.2-0.4l0.2,0.7l0.7,2.3L65.5-197.6z"/>
			
				<ellipse transform="matrix(0.3076 -0.9515 0.9515 0.3076 222.5774 -108.0445)" fill="#FFFFFF" cx="37.1" cy="-207" rx="1.3" ry="1.3"/>
			
				<ellipse transform="matrix(0.3076 -0.9515 0.9515 0.3076 219.5653 -103.9053)" fill="#FFFFFF" cx="38.4" cy="-202.8" rx="1.3" ry="1.3"/>
			
				<ellipse transform="matrix(0.3076 -0.9515 0.9515 0.3076 216.5519 -99.7642)" fill="#FFFFFF" cx="39.7" cy="-198.7" rx="1.3" ry="1.3"/>
		</g>
		<g>
			<path fill="#FFFFFF" d="M22.9-268.5L29-263l0.7,0.6l6.1,5.5c9.9,2.7,25.6-14.7,25.6-14.7l-12.9-11.7l-0.7-0.6l-12.9-11.7
				C34.9-295.4,19.2-278,22.9-268.5z"/>
			
				<rect x="14.8" y="-262.1" transform="matrix(0.7413 -0.6712 0.6712 0.7413 182.5235 -48.7899)" fill="#FFFFFF" width="26.3" height="1.9"/>
			<path fill="#FFFFFF" d="M62-270.9c0,0-0.8,0.8-2,2.1c0,0,0.1,0,0.1,0.1c2,1.8,2.1,4.8,0.3,6.8c-1.8,2-4.8,2.1-6.8,0.3
				c-0.3-0.3-0.5-0.6-0.7-0.9c-0.8,0.6-1.5,1.2-2.4,1.7c0.3,0.5,0.7,0.9,1.2,1.3c3.2,2.9,8,2.6,10.9-0.5
				C65.4-263.1,65.2-268,62-270.9z"/>
		</g>
		<g>
			<g>
				<path fill="#FFFFFF" d="M126-222.8c0.8,0.3,1.5,0.6,2.2,0.9C127.5-222.2,126.8-222.5,126-222.8z"/>
				<path fill="#FFFFFF" d="M114.6-224.2c0.8-0.1,1.6-0.1,2.4-0.1C116.2-224.3,115.4-224.2,114.6-224.2z"/>
				<path fill="#FFFFFF" d="M111.7-206.6l2.9-17.6c-6,0.5-11.5,3-15.8,6.9L111.7-206.6z"/>
				<path fill="#FFFFFF" d="M94.5-212.4c-0.3,0.4-0.5,0.8-0.8,1.2C94-211.5,94.2-211.9,94.5-212.4z"/>
				<path fill="#FFFFFF" d="M102.3-203.8l-8.6-7.1c-1,1.6-1.8,3.4-2.5,5.3L102.3-203.8z"/>
				<path fill="#FFFFFF" d="M109.8-202.5l-14-11.5c-0.5,0.6-0.9,1.2-1.3,1.8l10.9,9L109.8-202.5z"/>
				<path fill="#FFFFFF" d="M125.3-204.1l15.8-5.9c-2.8-5.2-7.3-9.4-12.8-11.8L125.3-204.1z"/>
				<path fill="#FFFFFF" d="M143.8-202.4l-10.2,3.8l10.8,1.8C144.4-198.7,144.2-200.6,143.8-202.4z"/>
				<path fill="#FFFFFF" d="M142.6-206.4c0.5,1.3,0.9,2.6,1.2,4c-0.4-2.1-1.1-4.1-2-6l-16.8,6.3l-0.3,2l0.8,0.1L142.6-206.4z"/>
				<path fill="#FFFFFF" d="M141.1-210c0.2,0.4,0.5,0.9,0.7,1.3C141.6-209.2,141.4-209.6,141.1-210z"/>
				<path fill="#FFFFFF" d="M144.5-197c0,0.5,0,1,0,1.5C144.5-196,144.5-196.5,144.5-197z"/>
				<path fill="#FFFFFF" d="M142.9-187.7l-11.4-1.9l8.9,7.3c1.3-2.1,2.3-4.4,3-6.9C143.3-188.7,143.1-188.2,142.9-187.7z"/>
				<path fill="#FFFFFF" d="M98.7-217.2c-1,0.9-2,1.9-2.8,3C96.8-215.3,97.7-216.3,98.7-217.2z"/>
				<path fill="#FFFFFF" d="M119.6-169.6c-0.8,0.1-1.6,0.1-2.4,0.1C118-169.5,118.8-169.5,119.6-169.6z"/>
				<path fill="#FFFFFF" d="M121.6-193.1l21.9,3.6c0.2-0.9,0.5-1.8,0.6-2.7c0.2-0.9,0.3-1.8,0.3-2.8l-21.9-3.6l3.8-23
					c-1.4-0.5-2.9-0.9-4.5-1.1c-1.5-0.3-3.1-0.4-4.6-0.4l-3.8,23l-22.7-3.8c0.1-0.5,0.3-1,0.5-1.5c-0.5,1.4-0.9,2.8-1.1,4.3
					c-0.6,3.3-0.4,6.6,0.3,9.8l10-3.5l-10.7-1.8c0,0,0.1-1.3,0.1-1.9l22.7,3.8l-3.9,23.7c1,0.4,2.5,0.8,4,1.1c1.5,0.3,3,0.4,5,0.5
					L121.6-193.1z"/>
				<path fill="#FFFFFF" d="M122.4-187l-2.9,17.4c5.9-0.5,11.4-3,15.7-6.8L122.4-187z"/>
				<path fill="#FFFFFF" d="M124-190.8l14.2,11.7c-0.9,1.1-1.8,2.1-2.9,3c2-1.8,3.7-3.8,5.1-6.1c-0.3,0.4-0.6,0.9-0.9,1.3l-11.1-9.2
					L124-190.8z"/>
				<path fill="#FFFFFF" d="M91.4-187.1c0.4,1.2,1,2.4,1.6,3.5c-0.3-0.5-0.5-0.9-0.7-1.4l16.9-6.3l0.3-1.9l-1.2-0.2L91.4-187.1z"/>
				<path fill="#FFFFFF" d="M108.2-171c-0.8-0.3-1.5-0.5-2.2-0.9C106.7-171.6,107.4-171.3,108.2-171z"/>
				<path fill="#FFFFFF" d="M91.4-187.4c-0.5-1.3-0.8-2.6-1.1-3.9C90.6-189.9,91-188.6,91.4-187.4z"/>
				<path fill="#FFFFFF" d="M108.9-189.8l-15.9,6c2.8,5.2,7.3,9.5,12.9,12L108.9-189.8z"/>
			</g>
			<g>
				<path fill="#FFFFFF" d="M125-202.1l-0.3,2l0.8,0.1l17.2-6.4c-0.3-0.7-0.6-1.4-0.9-2.1L125-202.1z"/>
				<path fill="#FFFFFF" d="M138.2-179.2c0.5-0.6,0.9-1.2,1.4-1.8l-11.1-9.2l-4.4-0.7L138.2-179.2z"/>
				<path fill="#FFFFFF" d="M95.9-214c-0.5,0.6-0.9,1.2-1.3,1.8l10.9,9l4.4,0.7L95.9-214z"/>
				<path fill="#FFFFFF" d="M91.4-187.1c0.3,0.7,0.5,1.4,0.9,2.1l16.9-6.3l0.3-1.9l-1.2-0.2L91.4-187.1z"/>
			</g>
			<path fill="#FFFFFF" d="M113.6-201l-22.7-3.8c-0.3,1.4-0.6,2.4-0.7,3.4c-0.2,1-0.3,2-0.3,3l22.7,3.8l-3.9,23.7
				c1,0.4,2.5,0.8,4,1.1c1.5,0.3,3,0.4,5,0.5l3.9-23.7l21.9,3.6c0.3-1,0.5-1.9,0.7-2.9c0.2-1,0.3-2,0.4-3.4l-21.9-3.6l3.9-23.2
				c-1.9-0.6-3.4-1-4.9-1.2c-1.5-0.3-3-0.4-4.2-0.3L113.6-201z"/>
		</g>
		<g>
			<g>
				<path fill="#FFFFFF" d="M214-197.9l2.6-1.6l0.3-0.2l2.6-1.6c2-3.2-2.6-10.7-2.6-10.7l-5.5,3.4l-0.3,0.2l-5.5,3.4
					C205.6-205.1,210.2-197.6,214-197.9z"/>
				
					<rect x="216.8" y="-203.9" transform="matrix(0.5239 -0.8518 0.8518 0.5239 272.882 90.2624)" fill="#FFFFFF" width="0.7" height="9.8"/>
				<path fill="#FFFFFF" d="M217.3-212.2c0,0,0.2,0.4,0.5,0.9c0,0,0,0,0,0c0.8-0.5,1.9-0.3,2.5,0.6c0.5,0.8,0.3,1.9-0.6,2.5
					c-0.1,0.1-0.3,0.1-0.4,0.2c0.1,0.3,0.3,0.7,0.4,1c0.2-0.1,0.4-0.2,0.6-0.3c1.4-0.8,1.8-2.6,0.9-4
					C220.4-212.6,218.6-213,217.3-212.2z"/>
			</g>
			<g>
				
					<rect x="191.3" y="-194.2" transform="matrix(0.5239 -0.8518 0.8518 0.5239 247.6695 75.9848)" fill="#FFFFFF" width="1.1" height="21.3"/>
				<g>
					<path fill="#FFFFFF" d="M200.4-211.6c-0.6-0.5-1.6,1.6-3.3,2c-1,1,0.4,3.9-0.6,6c-3.7-2.9-9.4-3.2-14.8-0.8
						c0-0.2,0-0.4-0.1-0.6c-0.4-0.7-1.8-0.7-3,0c-1.2,0.7-1.8,1.9-1.3,2.6c0.1,0.2,0.3,0.3,0.5,0.4c-5.7,4.5-7.9,11.6-4.7,16.7
						c2.3,3.7,6.8,5.4,11.7,4.8l13.2-8.1c1-1.5,1.7-3.1,2.1-4.7c0.9-0.6,2.7-2.5,2.7-6.3c0.1-2.5-1.4-3.8-2-6.3
						C200-208.3,201.4-210.7,200.4-211.6z"/>
					<path fill="#FFFFFF" d="M168.5-185.2c-1.5-2.4-0.7-5.6,1.7-7.1c0.3-0.2,0.6-0.3,1-0.5c0.2-0.9,0.6-1.8,1-2.7
						c-1.1,0.1-2.2,0.5-3.3,1.1c-3.6,2.2-4.7,6.9-2.5,10.5c2.1,3.4,6.4,4.6,9.9,2.9c-0.9-0.5-1.8-1.1-2.5-1.8
						C171.7-182.5,169.7-183.4,168.5-185.2z"/>
				</g>
			</g>
		</g>
		<g>
			<path fill="#FFFFFF" d="M137.3-282.4c0.2-1,0.3-2,0.1-3c-0.7-4.1-4.7-6.9-8.8-6.2c-0.8,0.1-1.6,0.4-2.3,0.8
				c-2.3-4.7-7.5-7.6-13-6.6c-4.7,0.8-8.3,4.3-9.5,8.6c-0.9-0.1-1.9-0.1-2.8,0.1c-5.3,0.9-8.7,6-7.8,11.2c0.2,1,0.5,2,1,2.9
				L137.3-282.4z"/>
			<g>
				<g>
					<path fill="#FFFFFF" d="M104.9-266.6c0.2,1.3-0.6,2.6-2,2.8c-1.3,0.2-2.6-0.6-2.8-2c-0.2-1.3,1.6-4.8,1.6-4.8
						S104.7-267.9,104.9-266.6z"/>
					<path fill="#FFFFFF" d="M106.9-255.6c0.2,1.3-0.6,2.6-2,2.8c-1.3,0.2-2.6-0.6-2.8-2c-0.2-1.3,1.6-4.8,1.6-4.8
						S106.6-257,106.9-255.6z"/>
					<path fill="#FFFFFF" d="M108.8-244.7c0.2,1.3-0.6,2.6-2,2.8c-1.3,0.2-2.6-0.6-2.8-2c-0.2-1.3,1.6-4.8,1.6-4.8
						S108.6-246,108.8-244.7z"/>
				</g>
				<path fill="#FFFFFF" d="M113.5-261.9c0.2,1.3-0.6,2.6-2,2.8c-1.3,0.2-2.6-0.6-2.8-2c-0.2-1.3,1.6-4.8,1.6-4.8
					S113.3-263.3,113.5-261.9z"/>
				<path fill="#FFFFFF" d="M115.5-251c0.2,1.3-0.6,2.6-2,2.8c-1.3,0.2-2.6-0.6-2.8-2c-0.2-1.3,1.6-4.8,1.6-4.8
					S115.3-252.3,115.5-251z"/>
			</g>
		</g>
		<g>
			<path fill="#FFFFFF" d="M140.5-41.3l-1.7,7.2l-32.3-7.4l1.7-7.2L140.5-41.3z M112.3-45.9l-1.8-0.4l-1,4.5l1.8,0.4L112.3-45.9z
				 M118.6-44.4l-1.8-0.4l-1,4.5l1.8,0.4L118.6-44.4z M124.8-43l-1.8-0.4l-1,4.5l1.8,0.4L124.8-43z M131.1-41.5l-1.8-0.4l-1,4.5
				l1.8,0.4L131.1-41.5z M137.4-40.1l-1.8-0.4l-1,4.5l1.8,0.4L137.4-40.1z"/>
			<path fill="#FFFFFF" d="M138.7-33.2L137-26l-32.3-7.4l1.7-7.2L138.7-33.2z M110.6-38.7l-1.8-0.4l-1,4.5l1.8,0.4L110.6-38.7z
				 M116.9-37.2l-1.8-0.4l-1,4.5l1.8,0.4L116.9-37.2z M123.2-35.8l-1.8-0.4l-1,4.5l1.8,0.4L123.2-35.8z M129.5-34.4l-1.8-0.4l-1,4.5
				l1.8,0.4L129.5-34.4z M135.8-32.9l-1.8-0.4l-1,4.5l1.8,0.4L135.8-32.9z"/>
			<polygon fill="#FFFFFF" points="104.7,-33.4 102.6,-24.5 125.1,-19.3 126.7,-26.5 130.3,-25.7 128.7,-18.5 129.6,-18.3 
				131.2,-25.5 134.8,-24.6 133.2,-17.4 134.9,-17 137,-26 			"/>
			<path fill="#FFFFFF" d="M141.2-41.1l-33.8-7.8l6.8-6l23.5,5.4L141.2-41.1z M119.7-49.3c0.3-0.5-0.2-1.1-0.7-1.7l-1.6-0.4
				c-0.8,0.3-1.4,0.6-2.2,1l-0.5,2.2l4.5,1L119.7-49.3z M126.9-47.6c0.2-0.5-0.2-1.1-0.8-1.7l-1.6-0.4c-0.8,0.3-1.4,0.6-2.1,1
				l-0.5,2.2l4.5,1L126.9-47.6z M134-46c0.2-0.5-0.3-1.1-0.8-1.7l-1.6-0.4c-0.8,0.3-1.4,0.6-2.1,1l-0.5,2.2l4.5,1L134-46z"/>
			<path fill="#FFFFFF" d="M108.1-56.3l-7.2,31.4l-1.2-0.3c0.5-2.2-0.9-4.5-3.2-5c-2.3-0.5-4.6,0.9-5.1,3.1l-1.2-0.3l7.2-31.4
				L108.1-56.3z M97.6-43.6L95.8-44l-1.9,8.1l1.8,0.4L97.6-43.6z M100.1-54.4l-1.8-0.4l-1.9,8.1l1.8,0.4L100.1-54.4z M100.3-43
				l-1.8-0.4l-1.9,8.1l1.8,0.4L100.3-43z M102.8-53.7l-1.8-0.4l-1.9,8.1l1.8,0.4L102.8-53.7z M103.9-42.1l-1.8-0.4l-1.9,8.1l1.8,0.4
				L103.9-42.1z M106.3-52.9l-1.8-0.4l-1.9,8.1l1.8,0.4L106.3-52.9z"/>
			<polygon fill="#FFFFFF" points="97.8,-58.7 104.1,-61.9 108.4,-56.2 			"/>
		</g>
		<g>
			<path fill="#FFFFFF" d="M287.4-111.6l-1.5,4.4l1.7,0.6l-0.2,0.6l-32.5-10.9l0.2-0.6l2.3,0.8l2.5-7.5c-0.6-1.2-1.1-2.4-1.4-3.3
				l0.4-1.1c0.3,0.9,0.7,2.1,1.4,3.4c0.2,0.4,0.4,0.7,0.6,1.1c0.4,0.7,0.7,1.3,1.2,2c0.2,0.3,0.4,0.6,0.6,0.9
				c0.4,0.6,0.8,1.1,1.3,1.7c0.2,0.3,0.4,0.5,0.7,0.8c0.4,0.5,0.9,0.9,1.4,1.4c0.2,0.2,0.5,0.4,0.7,0.6c0.5,0.4,1,0.8,1.5,1.1
				c0.2,0.2,0.5,0.3,0.8,0.5c0.5,0.3,1,0.6,1.6,0.9c0.3,0.1,0.5,0.3,0.8,0.4c0.3,0.1,0.5,0.2,0.8,0.3c0.3,0.1,0.6,0.2,0.9,0.3
				c0.3,0.1,0.6,0.2,0.8,0.3c0.6,0.2,1.1,0.3,1.7,0.5c0.3,0.1,0.6,0.1,0.9,0.2c0.6,0.1,1.2,0.2,1.8,0.3c0.3,0,0.6,0.1,0.9,0.1
				c0.6,0.1,1.2,0.1,1.8,0.1c0.3,0,0.6,0,0.9,0c0.7,0,1.3,0,1.9-0.1c0.3,0,0.7-0.1,1-0.1c0.7-0.1,1.4-0.2,2-0.4
				c0.4-0.1,0.7-0.2,1-0.3c0.9-0.3,1.6-0.5,2.1-0.7l-0.3,0.9C288.9-112,288.2-111.8,287.4-111.6z M261.7-121.2
				c-0.4-0.7-0.8-1.3-1.2-2l-2.3,6.7l1.7,0.6L261.7-121.2z M263.6-118.6c-0.5-0.5-0.9-1.1-1.3-1.6l-1.6,4.7l1.7,0.6L263.6-118.6z
				 M265.7-116.5c-0.5-0.4-1-0.9-1.4-1.4l-1.1,3.2l1.7,0.6L265.7-116.5z M268-114.8c-0.5-0.4-1-0.7-1.5-1.1l-0.7,2l1.7,0.6
				L268-114.8z M270.3-113.4c-0.5-0.3-1.1-0.6-1.6-0.9l-0.4,1.3l1.7,0.6L270.3-113.4z M272.8-112.4c-0.3-0.1-0.6-0.2-0.9-0.3
				c-0.2-0.1-0.5-0.2-0.7-0.3l-0.3,0.9l1.7,0.6L272.8-112.4z M275.3-111.7c-0.6-0.1-1.1-0.3-1.7-0.5l-0.3,0.8l1.7,0.6L275.3-111.7z
				 M277.9-111.1c-0.6-0.1-1.2-0.2-1.8-0.3l-0.3,1l1.7,0.6L277.9-111.1z M280.6-110.9c-0.6,0-1.2-0.1-1.8-0.1l-0.5,1.4l1.7,0.6
				L280.6-110.9z M283.4-110.9c-0.6,0-1.2,0.1-1.9,0.1l-0.7,2l1.7,0.6L283.4-110.9z M286.4-111.3c-0.6,0.1-1.3,0.2-2,0.3l-1,3
				l1.7,0.6L286.4-111.3z"/>
			
				<rect x="250.3" y="-131.2" transform="matrix(0.9481 -0.3179 0.3179 0.9481 52.265 74.2767)" fill="#FFFFFF" width="6.9" height="16.4"/>
			
				<rect x="288.9" y="-118.2" transform="matrix(0.9481 -0.3179 0.3179 0.9481 50.1515 87.2293)" fill="#FFFFFF" width="6.9" height="16.4"/>
			<g>
				<path fill="#FFFFFF" d="M245.5-112.8c-0.1,0.4,0.1,0.8,0.5,0.9l7.1,2.4c0.4,0.1,0.8-0.1,0.9-0.5l1.1-3.2
					c0.1-0.4-0.1-0.8-0.5-0.9l-7.1-2.4c-0.4-0.1-0.8,0.1-0.9,0.5L245.5-112.8z"/>
				<path fill="#FFFFFF" d="M261.7-136.1l-0.6,1.8l-0.3,0.8l-1.3,3.7l-6.5-2.2l2.1-6.4c0.1-0.2,0.3-0.3,0.5-0.3
					c0.2,0.1,0.3,0.3,0.3,0.5l-0.6,1.8l0.9,0.3l0.7-2.2l1.2,0.4l0.4-1.3c0.1-0.2,0.3-0.3,0.5-0.3c0.2,0.1,0.3,0.3,0.3,0.5l-0.4,1.3
					l1.2,0.4l-0.7,2.2l0.9,0.3l0.6-1.8c0.1-0.2,0.3-0.3,0.5-0.3C261.6-136.5,261.8-136.3,261.7-136.1z M258.4-134.3l-1.5-0.5l-1,3.1
					l1.5,0.5L258.4-134.3z"/>
				
					<rect x="252.9" y="-124.6" transform="matrix(0.9481 -0.3179 0.3179 0.9481 52.2659 74.271)" fill="#FFFFFF" width="1.6" height="3.2"/>
				
					<rect x="256.3" y="-134.7" transform="matrix(0.9481 -0.3179 0.3179 0.9481 55.6375 74.8212)" fill="#FFFFFF" width="1.6" height="3.2"/>
				
					<rect x="254.6" y="-129.7" transform="matrix(0.9481 -0.3179 0.3179 0.9481 53.9518 74.5461)" fill="#FFFFFF" width="1.6" height="3.2"/>
				
					<rect x="251.2" y="-119.6" transform="matrix(0.9481 -0.3179 0.3179 0.9481 50.5801 73.996)" fill="#FFFFFF" width="1.6" height="3.2"/>
			</g>
			<g>
				<path fill="#FFFFFF" d="M284.2-99.8c-0.1,0.4,0.1,0.8,0.5,0.9l7.1,2.4c0.4,0.1,0.8-0.1,0.9-0.5l1.1-3.2c0.1-0.4-0.1-0.8-0.5-0.9
					l-7.1-2.4c-0.4-0.1-0.8,0.1-0.9,0.5L284.2-99.8z"/>
				<path fill="#FFFFFF" d="M300.3-123.1l-0.6,1.8l-0.3,0.8l-1.3,3.7l-6.5-2.2l2.1-6.4c0.1-0.2,0.3-0.3,0.5-0.3
					c0.2,0.1,0.3,0.3,0.3,0.5l-0.6,1.8l0.9,0.3l0.7-2.2l1.2,0.4l0.4-1.3c0.1-0.2,0.3-0.3,0.5-0.3c0.2,0.1,0.3,0.3,0.3,0.5l-0.4,1.3
					l1.2,0.4l-0.7,2.2l0.9,0.3l0.6-1.8c0.1-0.2,0.3-0.3,0.5-0.3C300.3-123.5,300.4-123.3,300.3-123.1z M297-121.4l-1.5-0.5l-1,3.1
					l1.5,0.5L297-121.4z"/>
				
					<rect x="291.5" y="-111.7" transform="matrix(0.9481 -0.3179 0.3179 0.9481 50.1524 87.2237)" fill="#FFFFFF" width="1.6" height="3.2"/>
				
					<rect x="294.9" y="-121.7" transform="matrix(0.9481 -0.3179 0.3179 0.9481 53.524 87.7738)" fill="#FFFFFF" width="1.6" height="3.2"/>
				
					<rect x="293.2" y="-116.7" transform="matrix(0.9481 -0.3179 0.3179 0.9481 51.8383 87.4988)" fill="#FFFFFF" width="1.6" height="3.2"/>
				
					<rect x="289.9" y="-106.6" transform="matrix(0.9481 -0.3179 0.3179 0.9481 48.4665 86.9486)" fill="#FFFFFF" width="1.6" height="3.2"/>
			</g>
		</g>
		<g>
			
				<rect x="262.1" y="-224.1" transform="matrix(0.432 -0.9019 0.9019 0.432 342.0294 117.9732)" fill="#FFFFFF" width="5.2" height="23.1"/>
			<path fill="#FFFFFF" d="M293.5-182.2c0.2,0.5,0,1.1-0.5,1.4l-21.3,10.2c-0.5,0.2-1.1,0-1.4-0.5l-15.9-33.1
				c-0.2-0.5,0-1.1,0.5-1.4l21.3-10.2c0.5-0.2,1.1,0,1.4,0.5L293.5-182.2z"/>
			<path fill="#FFFFFF" d="M276.7-220.6c0.2,0.5,0,1.1-0.5,1.4l-24,11.5c-0.5,0.2-1.1,0-1.4-0.5l-0.6-1.4c-0.2-0.5-0.6-1.4-0.7-1.9
				c0,0-0.6-2.6,11.3-8.3c11.9-5.7,14-3.8,14-3.8c0.4,0.4,0.9,1.1,1.2,1.6L276.7-220.6z"/>
			<g>
				<path fill="#FFFFFF" d="M261.9-203.9l-1.4,0.6c-0.5,0.2-0.7,0.9-0.5,1.4l1.2,2.6c0.2,0.5,0.9,0.7,1.4,0.5l1.4-0.6
					c0.5-0.2,0.7-0.9,0.5-1.4l-1.2-2.6C263-203.9,262.4-204.1,261.9-203.9z"/>
				<path fill="#FFFFFF" d="M264.5-198.5l-1.4,0.6c-0.5,0.2-0.7,0.9-0.5,1.4l1.2,2.6c0.2,0.5,0.9,0.7,1.4,0.5l1.4-0.6
					c0.5-0.2,0.7-0.9,0.5-1.4l-1.2-2.6C265.6-198.5,265-198.7,264.5-198.5z"/>
				<path fill="#FFFFFF" d="M267.1-193.1l-1.4,0.6c-0.5,0.2-0.7,0.9-0.5,1.4l1.2,2.6c0.2,0.5,0.9,0.7,1.4,0.5l1.4-0.6
					c0.5-0.2,0.7-0.9,0.5-1.4l-1.2-2.6C268.2-193.1,267.6-193.3,267.1-193.1z"/>
				<path fill="#FFFFFF" d="M269.7-187.7l-1.4,0.6c-0.5,0.2-0.7,0.9-0.5,1.4l1.2,2.6c0.2,0.5,0.9,0.7,1.4,0.5l1.4-0.6
					c0.5-0.2,0.7-0.9,0.5-1.4l-1.2-2.6C270.8-187.7,270.2-187.9,269.7-187.7z"/>
				<path fill="#FFFFFF" d="M272.3-182.3l-1.4,0.6c-0.5,0.2-0.7,0.9-0.5,1.4l1.2,2.6c0.2,0.5,0.9,0.7,1.4,0.5l1.4-0.6
					c0.5-0.2,0.7-0.9,0.5-1.4l-1.2-2.6C273.4-182.3,272.8-182.5,272.3-182.3z"/>
				<path fill="#FFFFFF" d="M266.1-205.9l-1.4,0.6c-0.5,0.2-0.7,0.9-0.5,1.4l1.2,2.6c0.2,0.5,0.9,0.7,1.4,0.5l1.4-0.6
					c0.5-0.2,0.7-0.9,0.5-1.4l-1.2-2.6C267.2-205.9,266.6-206.2,266.1-205.9z"/>
				<path fill="#FFFFFF" d="M268.7-200.5l-1.4,0.6c-0.5,0.2-0.7,0.9-0.5,1.4l1.2,2.6c0.2,0.5,0.9,0.7,1.4,0.5l1.4-0.6
					c0.5-0.2,0.7-0.9,0.5-1.4l-1.2-2.6C269.8-200.5,269.2-200.7,268.7-200.5z"/>
				<path fill="#FFFFFF" d="M271.3-195.1l-1.4,0.6c-0.5,0.2-0.7,0.9-0.5,1.4l1.2,2.6c0.2,0.5,0.9,0.7,1.4,0.5l1.4-0.6
					c0.5-0.2,0.7-0.9,0.5-1.4l-1.2-2.6C272.4-195.1,271.8-195.3,271.3-195.1z"/>
				<path fill="#FFFFFF" d="M273.9-189.7l-1.4,0.6c-0.5,0.2-0.7,0.9-0.5,1.4l1.2,2.6c0.2,0.5,0.9,0.7,1.4,0.5l1.4-0.6
					c0.5-0.2,0.7-0.9,0.5-1.4l-1.2-2.6C275-189.7,274.4-189.9,273.9-189.7z"/>
				<path fill="#FFFFFF" d="M276.5-184.3l-1.4,0.6c-0.5,0.2-0.7,0.9-0.5,1.4l1.2,2.6c0.2,0.5,0.9,0.7,1.4,0.5l1.4-0.6
					c0.5-0.2,0.7-0.9,0.5-1.4l-1.2-2.6C277.6-184.3,277-184.5,276.5-184.3z"/>
				<path fill="#FFFFFF" d="M270.3-207.9l-1.4,0.6c-0.5,0.2-0.7,0.9-0.5,1.4l1.2,2.6c0.2,0.5,0.9,0.7,1.4,0.5l1.4-0.6
					c0.5-0.2,0.7-0.9,0.5-1.4l-1.2-2.6C271.4-208,270.8-208.2,270.3-207.9z"/>
				<path fill="#FFFFFF" d="M272.9-202.5l-1.4,0.6c-0.5,0.2-0.7,0.9-0.5,1.4l1.2,2.6c0.2,0.5,0.9,0.7,1.4,0.5l1.4-0.6
					c0.5-0.2,0.7-0.9,0.5-1.4l-1.2-2.6C274-202.5,273.4-202.8,272.9-202.5z"/>
				<path fill="#FFFFFF" d="M275.5-197.1l-1.4,0.6c-0.5,0.2-0.7,0.9-0.5,1.4l1.2,2.6c0.2,0.5,0.9,0.7,1.4,0.5l1.4-0.6
					c0.5-0.2,0.7-0.9,0.5-1.4l-1.2-2.6C276.6-197.1,276-197.4,275.5-197.1z"/>
				<path fill="#FFFFFF" d="M278.1-191.7l-1.4,0.6c-0.5,0.2-0.7,0.9-0.5,1.4l1.2,2.6c0.2,0.5,0.9,0.7,1.4,0.5l1.4-0.6
					c0.5-0.2,0.7-0.9,0.5-1.4l-1.2-2.6C279.2-191.7,278.6-192,278.1-191.7z"/>
				<path fill="#FFFFFF" d="M280.7-186.3l-1.4,0.6c-0.5,0.2-0.7,0.9-0.5,1.4l1.2,2.6c0.2,0.5,0.9,0.7,1.4,0.5l1.4-0.6
					c0.5-0.2,0.7-0.9,0.5-1.4l-1.2-2.6C281.8-186.3,281.2-186.6,280.7-186.3z"/>
				<path fill="#FFFFFF" d="M274.5-209.9l-1.4,0.6c-0.5,0.2-0.7,0.9-0.5,1.4l1.2,2.6c0.2,0.5,0.9,0.7,1.4,0.5l1.4-0.6
					c0.5-0.2,0.7-0.9,0.5-1.4l-1.2-2.6C275.6-210,275-210.2,274.5-209.9z"/>
				<path fill="#FFFFFF" d="M277.1-204.5l-1.4,0.6c-0.5,0.2-0.7,0.9-0.5,1.4l1.2,2.6c0.2,0.5,0.9,0.7,1.4,0.5l1.4-0.6
					c0.5-0.2,0.7-0.9,0.5-1.4l-1.2-2.6C278.2-204.6,277.6-204.8,277.1-204.5z"/>
				<path fill="#FFFFFF" d="M279.7-199.1l-1.4,0.6c-0.5,0.2-0.7,0.9-0.5,1.4l1.2,2.6c0.2,0.5,0.9,0.7,1.4,0.5l1.4-0.6
					c0.5-0.2,0.7-0.9,0.5-1.4l-1.2-2.6C280.8-199.2,280.2-199.4,279.7-199.1z"/>
				<path fill="#FFFFFF" d="M282.3-193.7l-1.4,0.6c-0.5,0.2-0.7,0.9-0.5,1.4l1.2,2.6c0.2,0.5,0.9,0.7,1.4,0.5l1.4-0.6
					c0.5-0.2,0.7-0.9,0.5-1.4l-1.2-2.6C283.4-193.8,282.8-194,282.3-193.7z"/>
				<path fill="#FFFFFF" d="M284.9-188.3l-1.4,0.6c-0.5,0.2-0.7,0.9-0.5,1.4l1.2,2.6c0.2,0.5,0.9,0.7,1.4,0.5l1.4-0.6
					c0.5-0.2,0.7-0.9,0.5-1.4l-1.2-2.6C286-188.4,285.4-188.6,284.9-188.3z"/>
			</g>
			<path fill="#FFFFFF" d="M293.2-180.8l-15.7-32.7c-0.3-0.7-1.1-0.9-1.8-0.6l-19.2,9.2c-0.7,0.3-0.9,1.1-0.6,1.8l15.7,32.7
				c0.3,0.7,1.1,0.9,1.8,0.6l19.2-9.2C293.2-179.3,293.5-180.1,293.2-180.8z M258.9-203.1l16.8-8.1l15,31.4l-16.8,8.1L258.9-203.1z"
				/>
		</g>
		<g>
			<g>
				<path fill="#FFFFFF" d="M277.1-248.8c-0.6,2,0.5,4.1,2.4,4.7l0,0c2,0.6,4.1-0.5,4.7-2.4l1.4-4.3c0.6-2-0.5-4.1-2.4-4.7l0,0
					c-2-0.6-4.1,0.5-4.7,2.4L277.1-248.8z"/>
				<path fill="#FFFFFF" d="M249.1-257.7c-0.6,2-2.7,3.1-4.7,2.4l0,0c-2-0.6-3.1-2.7-2.4-4.7l1.4-4.3c0.6-2,2.7-3.1,4.7-2.4l0,0
					c2,0.6,3.1,2.7,2.4,4.7L249.1-257.7z"/>
			</g>
			<path fill="#FFFFFF" d="M289.5-277.5c-8.4-2.7-15.6-5-15.6-5c-0.4-0.1-1.1-0.2-1.6-0.2c-0.3-0.3-0.6-0.5-1-0.7
				c0,0-7.2-2.3-15.6-5c-8.4-2.7-14.2,19.7-14.8,21.5s0.1,3,1.4,3.4l20.6,6.6c0.4,0.1,0.8,0.1,1.2,0c0.4,0.3,1,0.7,1.4,0.8l20.6,6.6
				c1.2,0.4,2.5-0.2,3.1-2S297.9-274.9,289.5-277.5z"/>
			<path fill="#FFFFFF" d="M272.4-282.5l-8.2,25.7c-0.4-0.6-0.6-1.4-0.3-2.1l7.1-22.1C271.2-281.7,271.7-282.3,272.4-282.5z"/>
			
				<ellipse transform="matrix(0.9527 -0.304 0.304 0.9527 95.8111 74.3014)" fill="#FFFFFF" cx="286.6" cy="-270.6" rx="3.5" ry="3.5"/>
			<path fill="#FFFFFF" d="M288-293.1c-2.1-0.7-6.8-2.2-11.1-3.5c-0.3-0.1-0.6-0.2-0.9-0.3c-4.2-1.3-8-2.6-10.1-3.2
				c-6.4-2.1-10.6,9.5-10.6,9.5c-0.6,1.9,0.4,3.9,2.3,4.5l14.5,4.6l0,0l0,0l14.5,4.6c1.9,0.6,3.9-0.4,4.5-2.3
				C291.2-279.3,294.4-291.1,288-293.1z"/>
			<path fill="#FFFFFF" d="M287.8-287.5c0.4-1.3-0.3-2.7-1.6-3.1l-10.2-3.2l-0.5-0.1l-9.7-3.1c-1.3-0.4-2.7,0.3-3.1,1.6l-2.2,5.5
				c-0.4,1.3,0.3,2.7,1.6,3.1l10.2,3.2l0.5,0.1l10.6,3.4c1.3,0.4,2.7-0.3,3.1-1.6L287.8-287.5z"/>
			<path fill="#FFFFFF" d="M283.4-298.7l-5.3-1.7l-0.5-0.1l-4.8-1.5c-0.6-0.2-1.3,0.1-1.5,0.8l-0.9,2.8c-0.2,0.6,0.1,1.3,0.8,1.5
				l4.8,1.5l0.5,0.1l5.3,1.7c0.6,0.2,1.3-0.1,1.5-0.8l0.9-2.8C284.4-297.8,284-298.5,283.4-298.7z"/>
			<path fill="#FFFFFF" d="M278.4-272.3l-16.8-5.4c-0.6-0.2-1.3,0.1-1.5,0.8l-3.5,11.1c-0.2,0.6,0.1,1.3,0.8,1.5l16.8,5.4
				c0.6,0.2,1.3-0.1,1.5-0.8l3.5-11.1C279.4-271.4,279.1-272.1,278.4-272.3z"/>
			<path fill="#FFFFFF" d="M272.9-256l-7.6-2.4l-0.5-0.1l-8.1-2.6c-0.5-0.2-1.1,0.1-1.3,0.6l-0.7,2.3c-0.2,0.5,0.1,1.1,0.6,1.3
				l8.1,2.6l0.9,0.3l7.2,2.3c0.5,0.2,1.1-0.1,1.3-0.6l0.7-2.3C273.7-255.3,273.4-255.9,272.9-256z"/>
			<ellipse transform="matrix(0.9527 -0.304 0.304 0.9527 97.4282 63.9125)" fill="#FFFFFF" cx="254" cy="-281" rx="3.5" ry="3.5"/>
		</g>
		<g>
			
				<ellipse transform="matrix(0.2563 -0.9666 0.9666 0.2563 219.9151 243.2334)" fill="#FFFFFF" cx="268" cy="-21.3" rx="2.6" ry="1.9"/>
			
				<ellipse transform="matrix(0.2563 -0.9666 0.9666 0.2563 240.4043 259.2868)" fill="#FFFFFF" cx="288.7" cy="-26.6" rx="2.6" ry="1.9"/>
			<g>
				<path fill="#FFFFFF" d="M284.6-32.9l4.6-0.2c0.6,2,1,3.7,1.3,4.8l-4.5-0.2C285.6-29.7,285.1-31.3,284.6-32.9z"/>
				<path fill="#FFFFFF" d="M290.5-28.3c0.2,0.8,0.3,1.2,0.3,1.2l-4,1.1c0,0-0.3-1-0.8-2.4L290.5-28.3z"/>
				<path fill="#FFFFFF" d="M283.5-30c1.5,5.3,3.2,10.8,3.9,13.1c0.2,0.7,0,1.2-0.6,1.4c-0.6,0.2-5.7,1.8-5.7,1.8l-3.9-14.6
					L283.5-30z"/>
			</g>
			<path fill="#FFFFFF" d="M270.8-52.7l-2.4,0.6c0,0,0.5,2,1.3,4.9c0.4,1.5,1.9,2.2,3.1,2c1.2-0.4,2.1-1.8,1.7-3.3
				c-0.8-2.9-1.3-4.9-1.3-4.9L270.8-52.7z"/>
			<path fill="#FFFFFF" d="M268.7-28.7l-4.1,2.1c0.5,2,0.9,3.7,1.2,4.8l3.8-2.4C269.4-25.4,269-27,268.7-28.7z"/>
			<path fill="#FFFFFF" d="M265.8-21.8c0.2,0.8,0.3,1.2,0.3,1.2l4-1.1c0,0-0.2-1-0.6-2.5L265.8-21.8z"/>
			<path fill="#FFFFFF" d="M282.5-49.4c-3.1-1.8-8.3-0.4-8.3-0.4s-0.6,1.8-2,2.6c-1.5,0-3-1.3-3-1.3s-5.2,1.3-7,4.5
				c-1.2,2,0.8,11.2,2.3,17.4l4.1-2.1c-0.9-4.4-1.7-9.3-1.2-9.4c0.4-0.1,1.5,3.6,2.7,8.3l6.2-1.6l6.2-1.6c-1.3-4.6-2.2-8.4-1.8-8.5
				c0.6-0.1,2.3,4.5,3.7,8.8l4.6-0.2C287.4-39.3,284.6-48.2,282.5-49.4z"/>
			<path fill="#FFFFFF" d="M282.6-33.2l-6.2,1.6l-6.2,1.6c0.3,1,0.5,2.1,0.8,3.2l6.2-1.7l6.2-1.7C283.2-31.1,282.9-32.1,282.6-33.2z
				"/>
			<path fill="#FFFFFF" d="M271-26.6c1.3,5.4,2.6,10.9,3.1,13.2c0.1,0.7,0.6,1.2,1,1.1c0.4-0.1,6-1.3,6-1.3l-3.9-14.6L271-26.6z"/>
			<path fill="#FFFFFF" d="M267.3-66.5c0,0-0.1,0-0.1,0c0,0-0.1,0-0.1,0c-4.2,1.1-6.7,5.5-5.6,9.7c1.1,4.2,5.5,6.7,9.7,5.6
				c0,0,0.1,0,0.1,0c0,0,0.1,0,0.1,0c4.2-1.1,6.7-5.5,5.6-9.7C275.9-65.1,271.5-67.7,267.3-66.5z"/>
			
				<rect x="259.7" y="-30.9" transform="matrix(0.2563 -0.9666 0.9666 0.2563 235.3437 245.0336)" fill="#FFFFFF" width="34.5" height="0.9"/>
			<path fill="#FFFFFF" d="M274.5-50.6c-0.3,0-0.5,0.2-0.5,0.5c0,0-0.2,2-1.8,2.4c-1.5,0.4-2.7-1.2-2.7-1.2
				c-0.2-0.2-0.5-0.3-0.7-0.1c-0.2,0.2-0.3,0.5-0.1,0.7c0.1,0.1,1.6,2.2,3.8,1.6c2.2-0.6,2.5-3.2,2.5-3.3
				C275-50.3,274.7-50.5,274.5-50.6z"/>
			
				<ellipse transform="matrix(0.2563 -0.9666 0.9666 0.2563 247.7355 232.1273)" fill="#FFFFFF" cx="274.7" cy="-44.9" rx="0.6" ry="0.6"/>
			
				<ellipse transform="matrix(0.2563 -0.9666 0.9666 0.2563 246.0419 234.3286)" fill="#FFFFFF" cx="275.3" cy="-42.7" rx="0.6" ry="0.6"/>
			
				<ellipse transform="matrix(0.2563 -0.9666 0.9666 0.2563 244.3484 236.5297)" fill="#FFFFFF" cx="275.9" cy="-40.5" rx="0.6" ry="0.6"/>
			
				<ellipse transform="matrix(0.2563 -0.9666 0.9666 0.2563 242.6548 238.7309)" fill="#FFFFFF" cx="276.5" cy="-38.3" rx="0.6" ry="0.6"/>
			
				<ellipse transform="matrix(0.2563 -0.9666 0.9666 0.2563 240.9614 240.932)" fill="#FFFFFF" cx="277.1" cy="-36.1" rx="0.6" ry="0.6"/>
			
				<ellipse transform="matrix(0.2563 -0.9666 0.9666 0.2563 239.2683 243.1326)" fill="#FFFFFF" cx="277.6" cy="-33.9" rx="0.6" ry="0.6"/>
			<path fill="#FFFFFF" d="M265.3-74.1L265.3-74.1c-0.1,0-0.1,0-0.2,0c-0.1,0-0.1,0-0.2,0l0,0c-11,3.3-3.4,17.9-3.4,17.9
				s2.4-2.2,7.2-3.4c4.8-1.3,8.4-0.7,8.4-0.7S276.5-76.7,265.3-74.1z"/>
		</g>
	</g>
</pattern>
<rect fill="url(#eng_16_white)" width="472" height="472"/>
</svg>
