<?xml version="1.0" encoding="utf-8"?><svg xmlns="http://www.w3.org/2000/svg" xmlns:xlink="http://www.w3.org/1999/xlink"><symbol viewBox="0 0 24 24" id="dribbble" xmlns="http://www.w3.org/2000/svg"><path d="M12 0C5.372 0 0 5.373 0 12s5.372 12 12 12 12-5.373 12-12S18.628 0 12 0zm9.885 11.441c-2.575-.422-4.943-.445-7.103-.073a42.153 42.153 0 0 0-.767-1.68c2.31-1 4.165-2.358 5.548-4.082a9.863 9.863 0 0 1 2.322 5.835zm-3.842-7.282c-1.205 1.554-2.868 2.783-4.986 3.68a46.287 46.287 0 0 0-3.488-5.438A9.894 9.894 0 0 1 12 2.087c2.275 0 4.368.779 6.043 2.072zM7.527 3.166a44.59 44.59 0 0 1 3.537 5.381c-2.43.715-5.331 1.082-8.684 1.105a9.931 9.931 0 0 1 5.147-6.486zM2.087 12l.013-.256c3.849-.005 7.169-.448 9.95-1.322.233.475.456.952.67 1.432-3.38 1.057-6.165 3.222-8.337 6.48A9.865 9.865 0 0 1 2.087 12zm3.829 7.81c1.969-3.088 4.482-5.098 7.598-6.027a39.137 39.137 0 0 1 2.043 7.46c-3.349 1.291-6.953.666-9.641-1.433zm11.586.43a41.098 41.098 0 0 0-1.92-6.897c1.876-.265 3.94-.196 6.199.196a9.923 9.923 0 0 1-4.279 6.701z"/></symbol><symbol viewBox="0 0 16 16" id="facebook" xmlns="http://www.w3.org/2000/svg"><path d="M14.5 0h-13C.675 0 0 .675 0 1.5v13c0 .825.675 1.5 1.5 1.5H8V9H6V7h2V6c0-1.653 1.347-3 3-3h2v2h-2c-.55 0-1 .45-1 1v1h3l-.5 2H10v7h4.5c.825 0 1.5-.675 1.5-1.5v-13c0-.825-.675-1.5-1.5-1.5z"/></symbol><symbol viewBox="0 0 24 24" id="github" xmlns="http://www.w3.org/2000/svg"><path d="M12 0C5.374 0 0 5.373 0 12c0 5.302 3.438 9.8 8.207 11.387.599.111.793-.261.793-.577v-2.234c-3.338.726-4.033-1.416-4.033-1.416-.546-1.387-1.333-1.756-1.333-1.756-1.089-.745.083-.729.083-.729 1.205.084 1.839 1.237 1.839 1.237 1.07 1.834 2.807 1.304 3.492.997.107-.775.418-1.305.762-1.604-2.665-.305-5.467-1.334-5.467-5.931 0-1.311.469-2.381 1.236-3.221-.124-.303-.535-1.524.117-3.176 0 0 1.008-.322 3.301 1.23A11.509 11.509 0 0 1 12 5.803c1.02.005 2.047.138 3.006.404 2.291-1.552 3.297-1.23 3.297-1.23.653 1.653.242 2.874.118 3.176.77.84 1.235 1.911 1.235 3.221 0 4.609-2.807 5.624-5.479 5.921.43.372.823 1.102.823 2.222v3.293c0 .319.192.694.801.576C20.566 21.797 24 17.3 24 12c0-6.627-5.373-12-12-12z"/></symbol><symbol viewBox="0 0 16 16" id="linkedin" xmlns="http://www.w3.org/2000/svg"><path d="M6 6h2.767v1.418h.04C9.192 6.727 10.134 6 11.539 6 14.46 6 15 7.818 15 10.183V15h-2.885v-4.27c0-1.018-.021-2.329-1.5-2.329-1.502 0-1.732 1.109-1.732 2.255V15H6V6zM1 6h3v9H1V6zm3-2.5a1.5 1.5 0 1 1-3.001-.001A1.5 1.5 0 0 1 4 3.5z"/></symbol><symbol viewBox="0 0 24 24" id="twitter" xmlns="http://www.w3.org/2000/svg"><path d="M24 4.557a9.83 9.83 0 0 1-2.828.775 4.932 4.932 0 0 0 2.165-2.724 9.864 9.864 0 0 1-3.127 1.195 4.916 4.916 0 0 0-3.594-1.555c-3.179 0-5.515 2.966-4.797 6.045A13.978 13.978 0 0 1 1.671 3.149a4.93 4.93 0 0 0 1.523 6.574 4.903 4.903 0 0 1-2.229-.616c-.054 2.281 1.581 4.415 3.949 4.89a4.935 4.935 0 0 1-2.224.084 4.928 4.928 0 0 0 4.6 3.419A9.9 9.9 0 0 1 0 19.54a13.94 13.94 0 0 0 7.548 2.212c9.142 0 14.307-7.721 13.995-14.646A10.025 10.025 0 0 0 24 4.557z"/></symbol></svg>