<!-- Generated by IcoMoon.io -->
<svg version="1.1" xmlns="http://www.w3.org/2000/svg" width="32" height="32" viewBox="0 0 32 32">
<title>vk</title>
<path fill="#6383a8" d="M15.656 25.052h1.914s0.576-0.064 0.872-0.38c0.28-0.294 0.28-0.84 0.28-0.84s-0.040-2.568 1.16-2.946c1.18-0.374 2.68 2.48 4.28 3.576 1.22 0.84 2.14 0.66 2.14 0.66l4.28-0.060s2.24-0.14 1.18-1.9c-0.080-0.14-0.6-1.3-3.16-3.68-2.68-2.48-2.32-2.080 0.9-6.38 1.96-2.62 2.76-4.22 2.5-4.9-0.22-0.64-1.68-0.48-1.68-0.48l-4.8 0.040s-0.36-0.040-0.62 0.12-0.42 0.52-0.42 0.52-0.76 2.040-1.78 3.76c-2.162 3.638-3.022 3.838-3.362 3.598-0.806-0.52-0.6-2.106-0.6-3.24 0-3.52 0.54-5-1.040-5.38-0.52-0.12-0.908-0.2-2.246-0.22-1.72-0.020-3.17 0.012-3.992 0.414-0.54 0.27-0.96 0.868-0.72 0.9 0.32 0.040 1.040 0.196 1.42 0.716 0.5 0.674 0.48 2.18 0.48 2.18s0.28 4.154-0.66 4.67c-0.66 0.348-1.54-0.374-3.46-3.674-0.98-1.68-1.72-3.56-1.72-3.56s-0.14-0.34-0.4-0.54c-0.3-0.22-0.74-0.3-0.74-0.3l-4.58 0.040s-0.68 0.020-0.92 0.32c-0.22 0.26-0.020 0.82-0.020 0.82s3.58 8.38 7.64 12.6c3.72 3.87 7.94 3.62 7.94 3.62z"></path>
</svg>
